# xmcd
#
# Track frame offsets:
# 150
# 10893
# 22797
# 32838
# 43581
# 54594
# 67118
# 77807
# 88280
# 100372
# 109090
# 122343
# 132681
# 143073
# 152952
# 163425
# 173898
# 185936
# 198271
# 212064
#
# Disc length: 2968 seconds
#
#
# Revision: 1
# Processed by: cddbd v1.5.2PL0 Copyright (c) Steve Scherf et al.
# Submitted via: FreeRIP 2.90 
#
DISCID=260b9614
DTITLE=F O MELHOR DO FORRÓ 2007 - F O MELHOR DO FORRÓ 2007
DYEAR=1900
DGENRE=
TTITLE0=PASSEANDO DE METRÔ
TTITLE1=PUXA O FOLE TESOURO
TTITLE2=FLORES DE OURO PRETO
TTITLE3=PÉ DE BODE NO FORRÓ
TTITLE4=COZINHA BOA
TTITLE5=EU SÓ QUERO UM XODÓ
TTITLE6=DE JOELHOS NO CHÃO
TTITLE7=CHORA NA RAMPA
TTITLE8=BARRIL DE CHOP
TTITLE9=PERTINHO DO MEU BEM
TTITLE10=LARGA BRASA
TTITLE11=SORRISO DA JULIA
TTITLE12=XOTE DE FAZENDA
TTITLE13=SOBERBO
TTITLE14=AMANHECER NO NORTE
TTITLE15=DANCE COMIGO
TTITLE16=GAÚCHO ALEGRE
TTITLE17=MORENINHA LINDA
TTITLE18=PINGA NE MIM
TTITLE19=BIQUINHA DO RIO DOCE
EXTD=DEUS É FIEL
EXTT0=
EXTT1=
EXTT2=
EXTT3=
EXTT4=
EXTT5=
EXTT6=
EXTT7=
EXTT8=
EXTT9=
EXTT10=
EXTT11=
EXTT12=
EXTT13=
EXTT14=
EXTT15=
EXTT16=
EXTT17=
EXTT18=
EXTT19=
PLAYORDER=
